#!OML:ASF E:\emotionWalksFemale\Project 1\Capture day 1\Session 1\Female1.ASF
:FULLY-SPECIFIED
:DEGREES
1768
root 7.99695 15.2911 40.7955 366.78 -194.727 -356.585
lowerback 8.03053 0.857003 0.344323
upperback -4.91153 1.33573 0.520901
thorax -9.75138 0.683567 0.137194
lowerneck -10.4337 0.218352 -3.10699
upperneck 9.03687 0.250639 5.08076
head 4.3991 0.342018 2.09194
rclavicle 7.42771e-014 1.23246e-014
rhumerus -40.4943 -1.89573 -85.0955
rradius 39.0913
rwrist 9.30679
rhand -4.90157 -56.8565
rfingers 7.12502
rthumb -159.112 94.2481
lclavicle 7.42771e-014 1.23246e-014
lhumerus -53.352 13.4008 73.2601
lradius 29.6436
lwrist -37.2401
lhand 8.31226 323.754
lfingers 7.12502
lthumb 33.5239 -9.35745
rfemur -22.5837 13.7974 20.1192
rtibia 40.5732
rfoot -23.2576 -19.5469
rtoes -2.26235
lfemur -8.32397 -22.6872 -26.2036
ltibia 24.4076
lfoot -33.8802 26.98
ltoes 0.955228
1769
root 7.99223 15.2941 40.807 366.89 -195.273 -356.612
lowerback 7.96365 0.905529 0.348525
upperback -4.99651 1.39986 0.449343
thorax -9.80345 0.713199 0.0481327
lowerneck -10.728 0.498847 -2.83467
upperneck 9.52706 0.608348 4.82828
head 4.58496 0.519632 1.99981
rclavicle 3.06874e-015 3.97569e-016
rhumerus -41.1753 -2.27025 -84.8439
rradius 38.8919
rwrist 10.8189
rhand -4.67132 -57.3613
rfingers 7.12502
rthumb -158.891 93.7678
lclavicle 3.06874e-015 3.97569e-016
lhumerus -52.3987 11.8535 75.1867
lradius 30.5182
lwrist -34.2178
lhand 7.13799 323.875
lfingers 7.12502
lthumb 32.407 -9.00104
rfemur -22.292 13.8633 19.9663
rtibia 40.235
rfoot -23.0173 -19.3077
rtoes -1.28655
lfemur -8.52766 -21.8981 -26.1613
ltibia 24.4291
lfoot -34.0415 26.2818
ltoes 3.14855
1770
root 7.98649 15.2979 40.8201 367.304 -196.057 -356.518
lowerback 7.67011 1.06343 0.516245
upperback -5.15919 1.63454 0.345097
thorax -9.80064 0.816608 -0.191676
lowerneck -10.9243 0.803406 -2.5507
upperneck 9.79193 1.01192 4.45201
head 4.6865 0.707249 1.86865
rclavicle 1.28775e-014 7.55382e-015
rhumerus -41.8798 -2.49635 -84.6433
rradius 38.7263
rwrist 11.7172
rhand -5.17145 -57.2421
rfingers 7.12502
rthumb -159.371 93.834
lclavicle 1.28775e-014 7.55382e-015
lhumerus -51.408 9.92924 77.1508
lradius 31.5337
lwrist -30.8171
lhand 5.53488 324.5
lfingers 7.12502
lthumb 30.88 -8.07593
rfemur -22.4237 14.1567 19.7941
rtibia 39.8018
rfoot -22.2618 -18.9146
rtoes -2.12807
lfemur -9.03186 -21.3412 -25.9854
ltibia 24.5065
lfoot -34.3201 26.2399
ltoes 3.51803
1771
root 7.98127 15.2937 40.8285 367.189 -195.929 -356.482
lowerback 7.64966 0.572972 0.516333
upperback -5.05004 0.959364 0.277291
thorax -9.66911 0.484417 -0.15437
lowerneck -10.9315 1.2766 -1.2375
upperneck 9.80448 1.52978 3.70425
head 4.68995 0.96316 1.45927
rclavicle -2.13818e-014 7.95139e-015
rhumerus -42.2163 -1.84735 -85.1541
rradius 38.4982
rwrist 12.6414
rhand -5.16634 -56.7835
rfingers 7.12502
rthumb -159.366 94.2932
lclavicle -2.13818e-014 7.95139e-015
lhumerus -50.5636 8.65417 78.3604
lradius 32.8155
lwrist -27.2698
lhand 4.41851 325.213
lfingers 7.12502
lthumb 29.8152 -7.16674
rfemur -21.7374 13.9655 19.8218
rtibia 39.2544
rfoot -22.0912 -18.6344
rtoes -3.87763
lfemur -8.92506 -21.6413 -25.9905
ltibia 24.5418
lfoot -34.194 26.5566
ltoes 2.84261
1772
root 7.98606 15.2932 40.8398 367.425 -196.555 -356.413
lowerback 7.22744 0.486834 0.23675
upperback -5.04352 0.812954 0.296149
thorax -9.41572 0.43508 0.0504929
lowerneck -11.0282 1.79164 -0.228968
upperneck 10.0394 2.14128 3.0098
head 4.78216 1.25927 1.12732
rclavicle 5.2181e-015 -1.63003e-014
rhumerus -42.6392 -1.33707 -85.3118
rradius 38.3281
rwrist 13.5515
rhand -4.70403 -56.8206
rfingers 7.12502
rthumb -158.922 94.3049
lclavicle 5.2181e-015 -1.63003e-014
lhumerus -49.5543 7.47061 79.5092
lradius 33.7948
lwrist -24.531
lhand 3.90652 324.921
lfingers 7.12502
lthumb 29.3264 -7.37162
rfemur -21.5545 14.3086 19.7015
rtibia 38.6152
rfoot -22.0352 -18.189
rtoes -5.65
lfemur -9.189 -21.8515 -25.9219
ltibia 24.6283
lfoot -34.6017 27.1243
ltoes 4.38123
1773
root 7.98404 15.2974 40.8419 367.153 -195.834 -356.51
lowerback 7.28853 0.160787 0.40851
upperback -4.98745 0.387991 0.268889
thorax -9.38878 0.215079 -0.0100861
lowerneck -10.8329 2.02101 0.0746777
upperneck 10.057 2.44461 2.66372
head 4.75815 1.39617 0.990282
rclavicle -1.82758e-014 4.37326e-015
rhumerus -43.3855 -1.309 -84.9152
rradius 38.2909
rwrist 14.434
rhand -4.12964 -56.6507
rfingers 7.12502
rthumb -158.371 94.5374
lclavicle -1.82758e-014 4.37326e-015
lhumerus -48.5808 5.88342 80.8858
lradius 34.7711
lwrist -22.2766
lhand 1.38931 323.775
lfingers 7.12502
lthumb 26.9204 -8.12216
rfemur -20.5745 14.2032 19.7069
rtibia 37.8764
rfoot -22.3865 -18.3598
rtoes -5.19158
lfemur -9.09544 -21.6455 -25.9606
ltibia 24.7661
lfoot -33.7955 26.7266
ltoes 3.49452
1774
root 7.9842 15.2946 40.8499 366.996 -195.556 -356.486
lowerback 7.39802 0.150151 0.752764
upperback -5.00568 0.408598 0.198984
thorax -9.47138 0.199721 -0.281664
lowerneck -10.6292 2.02128 -0.0951217
upperneck 10.0845 2.47187 2.69224
head 4.72964 1.40502 1.02611
rclavicle -3.72783e-014 -1.98785e-015
rhumerus -44.3654 -1.71768 -84.2593
rradius 38.413
rwrist 15.0425
rhand -3.71446 -56.1641
rfingers 7.12502
rthumb -157.972 95.0704
lclavicle -3.72783e-014 -1.98785e-015
lhumerus -47.6121 3.60545 82.4814
lradius 35.8617
lwrist -20.1483
lhand -1.91058 323.585
lfingers 7.12502
lthumb 23.7592 -7.86371
rfemur -19.8804 14.3832 19.7668
rtibia 37.0785
rfoot -22.2518 -18.3369
rtoes -6.31882
lfemur -9.0634 -21.7018 -25.9287
ltibia 24.9253
lfoot -33.6181 26.5144
ltoes 3.57754
1775
root 7.98889 15.2874 40.8612 367.045 -195.578 -356.342
lowerback 7.28755 0.035567 0.825271
upperback -5.05245 0.263753 0.174839
thorax -9.45838 0.125367 -0.325637
lowerneck -10.2693 2.2802 0.364393
upperneck 10.0062 2.778 2.54651
head 4.65006 1.56334 0.922292
rclavicle 3.67317e-014 7.15625e-015
rhumerus -45.1369 -1.60275 -84.1815
rradius 38.3861
rwrist 15.3651
rhand -3.44977 -56.1378
rfingers 7.12502
rthumb -157.718 95.1268
lclavicle 3.67317e-014 7.15625e-015
lhumerus -46.6846 1.99517 83.2923
lradius 36.8758
lwrist -18.4699
lhand -3.79495 323.444
lfingers 7.12502
lthumb 21.9509 -7.78124
rfemur -19.4441 14.7676 19.8721
rtibia 36.2341
rfoot -22.0173 -18.305
rtoes -8.81076
lfemur -9.18548 -22.0538 -25.7658
ltibia 25.0987
lfoot -33.9069 26.5864
ltoes 4.27019
1776
root 8.00672 15.3086 40.9444 367.852 -194.435 -356.575
lowerback 7.52612 -0.406256 0.183175
upperback -5.5041 -0.372597 0.221863
thorax -10.1005 -0.12786 0.184405
lowerneck -10.3613 2.44485 0.866239
upperneck 10.1529 2.95952 2.22546
head 4.72149 1.65337 0.757883
rclavicle -5.02428e-014 -1.59028e-015
rhumerus -45.7584 -1.58693 -83.9804
rradius 38.3052
rwrist 15.5313
rhand -3.28524 -56.184
rfingers 7.12502
rthumb -157.56 95.0997
lclavicle -5.02428e-014 -1.59028e-015
lhumerus -45.4665 0.715034 83.9
lradius 37.6839
lwrist -16.9627
lhand -4.73295 322.971
lfingers 7.12502
lthumb 21.05 -8.15145
rfemur -19.9668 14.869 19.588
rtibia 35.3777
rfoot -22.0891 -18.936
rtoes -9.8939
lfemur -10.8888 -20.4238 -25.0377
ltibia 25.3816
lfoot -31.8075 24.8566
ltoes -0.31598
